<?xml version="1.0" encoding="UTF-8"?>
<svg id="Layer_1" xmlns="http://www.w3.org/2000/svg" version="1.1" viewBox="0 0 612 792">
  <!-- Generator: Adobe Illustrator 29.3.1, SVG Export Plug-In . SVG Version: 2.1.0 Build 151)  -->
  <defs>
    <style>
      .st0 {
        stroke: #3953a4;
      }

      .st0, .st1 {
        fill: none;
        stroke-linejoin: round;
        stroke-width: 1.5px;
      }

      .st2 {
        fill: #231f20;
        font-family: Helvetica, Helvetica;
        font-size: 18px;
      }

      .st1 {
        stroke: #ed2024;
      }
    </style>
  </defs>
  <path class="st1" d="M31.09,340.59l3.18,12.74,3.18-12.74M34.27,314.73v38.6"/>
  <path class="st0" d="M36.53,348.67l-2.26-9.03-2.26,9.03M34.27,367.01v-27.36"/>
  <path class="st1" d="M33.7,373.82l.58,2.31.58-2.31M34.27,369.13v7"/>
  <path class="st0" d="M34.9,390.63l-.63-2.52-.63,2.52M34.27,395.74v-7.63"/>
  <path class="st1" d="M33.33,413.18l.94,3.78.95-3.78M34.27,405.5v11.46"/>
  <path class="st0" d="M35.3,428.4l-1.03-4.12-1.03,4.12M34.27,436.77v-12.49"/>
  <path class="st1" d="M52.84,335.54l.74,2.94.74-2.94M53.57,329.57v8.91"/>
  <path class="st0" d="M54.49,351.44l-.92-3.67-.92,3.67M53.57,358.89v-11.12M54.58,370.55l-1.01-4.04-1.01,4.04M53.57,378.75v-12.24"/>
  <path class="st1" d="M52.8,393.51l.77,3.08.77-3.08M53.57,387.26v9.33M52.98,412.45l.59,2.38.59-2.38M53.57,407.63v7.2"/>
  <path class="st0" d="M54.27,429.09l-.7-2.79-.7,2.79M53.57,434.75v-8.45"/>
  <path class="st1" d="M72.68,334.42l.19.77.19-.77M72.87,332.86v2.33"/>
  <path class="st0" d="M73.11,352.84l-.23-.94-.23.94M72.87,354.75v-2.84"/>
  <path class="st1" d="M72.54,373.31l.33,1.33.33-1.33M72.87,370.61v4.03"/>
  <path class="st0" d="M73.23,391.18l-.36-1.45-.36,1.45M72.87,394.12v-4.39"/>
  <path class="st1" d="M72.8,411.38l.07.29.07-.29M72.87,410.78v.89"/>
  <path class="st0" d="M73,430.27l-.12-.49-.12.49M72.87,431.27v-1.48M92.49,333.36l-.32-1.28-.32,1.28M92.17,335.97v-3.89"/>
  <path class="st1" d="M91.87,353.95l.3,1.22.3-1.22M92.17,351.48v3.69"/>
  <path class="st0" d="M92.46,372.04l-.29-1.15-.29,1.15M92.17,374.37v-3.48"/>
  <path class="st1" d="M91.92,392.46l.26,1.02.26-1.02M92.17,390.37v3.11"/>
  <path class="st0" d="M92.58,410.39l-.41-1.63-.41,1.63M92.17,413.7v-4.95"/>
  <path class="st1" d="M91.81,431.27l.36,1.45.36-1.45M92.17,428.33v4.39M111.3,334.39l.18.72.18-.72M111.47,332.94v2.17"/>
  <path class="st0" d="M111.66,352.94l-.19-.74-.19.74M111.47,354.45v-2.25"/>
  <path class="st1" d="M111.18,373.23l.29,1.16.29-1.16M111.47,370.86v3.53"/>
  <path class="st0" d="M111.78,391.3l-.3-1.21-.3,1.21M111.47,393.76v-3.68"/>
  <path class="st1" d="M111.29,411.61l.19.74.19-.74M111.47,410.1v2.26"/>
  <path class="st0" d="M111.67,430.12l-.2-.79-.2.79M111.47,431.72v-2.39M130.81,333.95l-.04-.15-.04.15M130.77,334.26v-.46"/>
  <path class="st1" d="M130.74,353.4l.03.13.03-.13M130.77,353.12v.41"/>
  <path class="st0" d="M130.99,372.18l-.22-.86-.21.86M130.77,373.93v-2.61"/>
  <path class="st1" d="M130.57,392.35l.2.82.21-.82M130.77,390.68v2.49"/>
  <path class="st0" d="M130.86,411.05l-.09-.34-.08.34M130.77,411.74v-1.03"/>
  <path class="st1" d="M130.7,430.68l.08.3.08-.3M130.77,430.07v.92M149.98,334.23l.1.39.1-.39M150.07,333.43v1.18"/>
  <path class="st0" d="M150.18,353.12l-.1-.4-.1.4M150.07,353.94v-1.22"/>
  <path class="st1" d="M149.92,372.94l.15.62.15-.62M150.07,371.7v1.86"/>
  <path class="st0" d="M150.23,391.6l-.16-.63-.16.63M150.07,392.89v-1.92"/>
  <path class="st1" d="M149.98,411.41l.09.36.09-.36M150.07,410.67v1.11"/>
  <path class="st0" d="M150.17,430.33l-.09-.37-.09.37M150.07,431.09v-1.13M169.43,333.9l-.06-.24-.06.24M169.37,334.4v-.74"/>
  <path class="st1" d="M169.32,353.45l.06.24.06-.24M169.37,352.97v.71"/>
  <path class="st0" d="M169.49,372.38l-.12-.48-.12.48M169.37,373.36v-1.46"/>
  <path class="st1" d="M169.26,392.17l.12.47.12-.47M169.37,391.21v1.43"/>
  <path class="st0" d="M169.45,411.07l-.07-.3-.07.3M169.37,411.68v-.9"/>
  <path class="st1" d="M169.3,430.68l.07.29.07-.29M169.37,430.08v.88M188.61,334.16l.06.25.06-.25M188.67,333.64v.77"/>
  <path class="st0" d="M188.74,353.19l-.07-.26-.07.26M188.67,353.72v-.79"/>
  <path class="st1" d="M188.57,372.83l.1.4.1-.4M188.67,372.02v1.21"/>
  <path class="st0" d="M188.78,391.72l-.1-.4-.1.4M188.67,392.54v-1.22"/>
  <path class="st1" d="M188.62,411.34l.06.23.06-.23M188.67,410.88v.68"/>
  <path class="st0" d="M188.73,430.41l-.06-.22-.06.22M188.67,430.87v-.68M208.01,333.96l-.03-.13-.03.13M207.98,334.23v-.4"/>
  <path class="st1" d="M207.94,353.39l.03.13.03-.13M207.98,353.13v.39"/>
  <path class="st0" d="M208.05,372.47l-.07-.3-.07.3M207.98,373.08v-.9"/>
  <path class="st1" d="M207.9,392.08l.07.29.07-.29M207.98,391.48v.89"/>
  <path class="st0" d="M208.01,411.15l-.04-.15-.04.15M207.98,411.46v-.47"/>
  <path class="st1" d="M207.93,430.61l.04.16.04-.16M207.98,430.29v.48M227.24,334.11l.04.15.04-.15M227.28,333.79v.47"/>
  <path class="st0" d="M227.31,353.25l-.04-.16-.04.16M227.28,353.56v-.47"/>
  <path class="st1" d="M227.21,372.75l.06.24.06-.24M227.28,372.26v.74"/>
  <path class="st0" d="M227.33,391.8l-.06-.24-.06.24M227.28,392.29v-.72"/>
  <path class="st1" d="M227.24,411.3l.03.14.03-.14M227.28,411.02v.41"/>
  <path class="st0" d="M227.31,430.46l-.03-.13-.03.13M227.28,430.72v-.4M246.6,333.98l-.02-.08-.02.08M246.58,334.15v-.26"/>
  <path class="st1" d="M246.55,353.37l.02.08.02-.08M246.58,353.2v.25"/>
  <path class="st0" d="M246.62,372.53l-.04-.18-.05.18M246.58,372.9v-.54"/>
  <path class="st1" d="M246.53,392.02l.05.18.04-.18M246.58,391.65v.54"/>
  <path class="st0" d="M246.6,411.18l-.02-.1-.02.1M246.58,411.37v-.29"/>
  <path class="st1" d="M246.55,430.58l.03.1.02-.1M246.58,430.37v.31M265.85,334.07l.02.09.02-.09M265.88,333.89v.28"/>
  <path class="st0" d="M265.9,353.28l-.02-.09-.02.09M265.88,353.46v-.28"/>
  <path class="st1" d="M265.84,372.7l.04.15.04-.15M265.88,372.4v.45"/>
  <path class="st0" d="M265.91,391.85l-.04-.14-.04.14M265.88,392.14v-.43"/>
  <path class="st1" d="M265.86,411.27l.02.08.02-.08M265.88,411.1v.25"/>
  <path class="st0" d="M265.89,430.49l-.02-.08-.02.08M265.88,430.64v-.23M285.19,334v-.05s-.03.05-.03.05M285.18,334.1v-.16"/>
  <path class="st1" d="M285.16,353.35v.05s.03-.05.03-.05M285.18,353.25v.16"/>
  <path class="st0" d="M285.2,372.57l-.03-.11-.03.11M285.18,372.79v-.33"/>
  <path class="st1" d="M285.15,391.98l.03.11.03-.11M285.18,391.76v.34"/>
  <path class="st0" d="M285.19,411.2v-.06s-.03.06-.03.06M285.18,411.32v-.18"/>
  <path class="st1" d="M285.16,430.56l.02.07.02-.07M285.18,430.43v.2M304.46,334.05v.05s.03-.05.03-.05M304.48,333.94v.17"/>
  <path class="st0" d="M304.49,353.3v-.05s-.03.05-.03.05M304.48,353.4v-.16"/>
  <path class="st1" d="M304.45,372.67l.02.09.02-.09M304.48,372.49v.27"/>
  <path class="st0" d="M304.5,391.88l-.02-.08-.02.08M304.48,392.05v-.26"/>
  <path class="st1" d="M304.46,411.25v.05s.03-.05.03-.05M304.48,411.15v.15"/>
  <path class="st0" d="M304.49,430.51v-.04s-.02.04-.02.04M304.48,430.59v-.13M323.78,334.01v-.03s-.02.03-.02.03M323.78,334.07v-.1"/>
  <path class="st1" d="M323.77,353.34v.03s.02-.03.02-.03M323.78,353.27v.1"/>
  <path class="st0" d="M323.79,372.59l-.02-.07-.02.07M323.78,372.73v-.2"/>
  <path class="st1" d="M323.76,391.96l.02.07.02-.07M323.78,391.82v.21"/>
  <path class="st0" d="M323.79,411.21v-.04s-.02.04-.02.04M323.78,411.28v-.11"/>
  <path class="st1" d="M323.77,430.55v.04s.02-.04.02-.04M323.78,430.46v.13M343.07,334.04v.03s.02-.03.02-.03M343.08,333.98v.09"/>
  <path class="st0" d="M343.08,353.31v-.03s-.01.03-.01.03M343.08,353.37v-.08"/>
  <path class="st1" d="M343.06,372.65v.05s.03-.05.03-.05M343.08,372.55v.16"/>
  <path class="st0" d="M343.09,391.9v-.05s-.02.05-.02.05M343.08,392v-.14"/>
  <path class="st1" d="M343.07,411.24v.03s.01-.03.01-.03M343.08,411.18v.09"/>
  <path class="st0" d="M343.08,430.51v-.02s-.01.02-.01.02M343.08,430.56v-.07M362.38,334.02v-.02s-.01.02-.01.02M362.38,334.06v-.07"/>
  <path class="st1" d="M362.37,353.34v.02s.01-.02.01-.02M362.38,353.29v.07"/>
  <path class="st0" d="M362.39,372.61v-.04s-.02.04-.02.04M362.38,372.69v-.12"/>
  <path class="st1" d="M362.36,391.95v.04s.02-.04.02-.04M362.38,391.86v.13"/>
  <path class="st0" d="M362.38,411.21v-.03s-.01.03-.01.03M362.38,411.27v-.08"/>
  <path class="st1" d="M362.37,430.54v.03s.01-.03.01-.03M362.38,430.48v.09M381.67,334.03h0s0,0,0,0M381.68,334.02v.02"/>
  <path class="st0" d="M381.68,353.32h0s0,0,0,0M381.68,353.34v-.02"/>
  <path class="st1" d="M381.67,372.64v.03s.01-.03.01-.03M381.68,372.58v.09"/>
  <path class="st0" d="M381.68,391.91v-.03s-.01.03-.01.03M381.68,391.97v-.08"/>
  <path class="st1" d="M381.67,411.23h0s0,0,0,0M381.68,411.22v.02"/>
  <path class="st0" d="M381.68,430.52h0s0,0,0,0M381.68,430.54v-.02M400.98,334.01v-.02s-.01.02-.01.02M400.98,334.06v-.08"/>
  <path class="st1" d="M400.97,353.34v.03s.01-.03.01-.03M400.98,353.29v.08"/>
  <path class="st0" d="M400.98,372.61v-.03s-.02.03-.02.03M400.98,372.68v-.1"/>
  <path class="st1" d="M400.97,391.95v.04s.02-.04.02-.04M400.98,391.87v.11"/>
  <path class="st0" d="M400.98,411.21v-.03s-.02.03-.02.03M400.98,411.27v-.09"/>
  <path class="st1" d="M400.97,430.54v.03s.02-.03.02-.03M400.98,430.48v.09"/>
  <path class="st0" d="M423.31,404.98l-3.03-12.14-3.03,12.14M420.28,429.61v-36.77"/>
  <text class="st2" transform="translate(429.92 418.23)"><tspan x="0" y="0">Spin Up = 0.09</tspan></text>
  <path class="st1" d="M417.24,378.88l3.03,12.14,3.03-12.14M420.28,354.24v36.78"/>
  <text class="st2" transform="translate(429.92 379.62)"><tspan x="0" y="0">Spin Down = 0.09</tspan></text>
</svg>